<mxfile host="Electron" agent="Mozilla/5.0 (Windows NT 10.0; Win64; x64) AppleWebKit/537.36 (KHTML, like Gecko) draw.io/26.1.1 Chrome/132.0.6834.210 Electron/34.3.3 Safari/537.36" version="26.1.1">
  <diagram name="PÃ¡gina-1" id="mBzztjjE1htirHH1m6_b">
    <mxGraphModel dx="2587" dy="1064" grid="1" gridSize="10" guides="1" tooltips="1" connect="1" arrows="1" fold="1" page="1" pageScale="1" pageWidth="827" pageHeight="1169" math="0" shadow="0">
      <root>
        <mxCell id="0" />
        <mxCell id="1" parent="0" />
        <mxCell id="PZAd172AtOwlA6TTgWJv-4" value="" style="edgeStyle=orthogonalEdgeStyle;rounded=0;orthogonalLoop=1;jettySize=auto;html=1;" edge="1" parent="1" source="PZAd172AtOwlA6TTgWJv-2" target="PZAd172AtOwlA6TTgWJv-3">
          <mxGeometry relative="1" as="geometry" />
        </mxCell>
        <mxCell id="PZAd172AtOwlA6TTgWJv-2" value="Inicio" style="strokeWidth=2;html=1;shape=mxgraph.flowchart.terminator;whiteSpace=wrap;" vertex="1" parent="1">
          <mxGeometry x="-780" y="455" width="100" height="60" as="geometry" />
        </mxCell>
        <mxCell id="PZAd172AtOwlA6TTgWJv-6" value="" style="edgeStyle=orthogonalEdgeStyle;rounded=0;orthogonalLoop=1;jettySize=auto;html=1;" edge="1" parent="1" source="PZAd172AtOwlA6TTgWJv-3" target="PZAd172AtOwlA6TTgWJv-5">
          <mxGeometry relative="1" as="geometry" />
        </mxCell>
        <mxCell id="PZAd172AtOwlA6TTgWJv-3" value="Float lado1&lt;div&gt;Float lado2&lt;/div&gt;&lt;div&gt;Float lado3&lt;/div&gt;" style="rounded=0;whiteSpace=wrap;html=1;" vertex="1" parent="1">
          <mxGeometry x="-790" y="560" width="120" height="60" as="geometry" />
        </mxCell>
        <mxCell id="PZAd172AtOwlA6TTgWJv-8" value="" style="edgeStyle=orthogonalEdgeStyle;rounded=0;orthogonalLoop=1;jettySize=auto;html=1;" edge="1" parent="1" source="PZAd172AtOwlA6TTgWJv-5" target="PZAd172AtOwlA6TTgWJv-7">
          <mxGeometry relative="1" as="geometry" />
        </mxCell>
        <mxCell id="PZAd172AtOwlA6TTgWJv-5" value="&lt;div&gt;lado1 = 0&lt;/div&gt;&lt;div&gt;lado2 = 0&lt;/div&gt;&lt;div&gt;lado3 = 0&lt;/div&gt;" style="rounded=0;whiteSpace=wrap;html=1;" vertex="1" parent="1">
          <mxGeometry x="-800" y="650" width="140" height="60" as="geometry" />
        </mxCell>
        <mxCell id="PZAd172AtOwlA6TTgWJv-7" value="1" style="ellipse;whiteSpace=wrap;html=1;aspect=fixed;" vertex="1" parent="1">
          <mxGeometry x="-755" y="745" width="50" height="50" as="geometry" />
        </mxCell>
        <mxCell id="PZAd172AtOwlA6TTgWJv-12" value="" style="edgeStyle=orthogonalEdgeStyle;rounded=0;orthogonalLoop=1;jettySize=auto;html=1;" edge="1" parent="1" source="PZAd172AtOwlA6TTgWJv-9" target="PZAd172AtOwlA6TTgWJv-11">
          <mxGeometry relative="1" as="geometry" />
        </mxCell>
        <mxCell id="PZAd172AtOwlA6TTgWJv-9" value="1" style="ellipse;whiteSpace=wrap;html=1;aspect=fixed;" vertex="1" parent="1">
          <mxGeometry x="-377.38" y="360" width="50" height="50" as="geometry" />
        </mxCell>
        <mxCell id="PZAd172AtOwlA6TTgWJv-17" value="" style="edgeStyle=orthogonalEdgeStyle;rounded=0;orthogonalLoop=1;jettySize=auto;html=1;" edge="1" parent="1" source="PZAd172AtOwlA6TTgWJv-10" target="PZAd172AtOwlA6TTgWJv-14">
          <mxGeometry relative="1" as="geometry" />
        </mxCell>
        <mxCell id="PZAd172AtOwlA6TTgWJv-10" value="&quot;Insira o tamanho do segundo lado do triangulo.:&quot;" style="shape=display;whiteSpace=wrap;html=1;" vertex="1" parent="1">
          <mxGeometry x="-549.63" y="620" width="394.5" height="60" as="geometry" />
        </mxCell>
        <mxCell id="PZAd172AtOwlA6TTgWJv-15" value="" style="edgeStyle=orthogonalEdgeStyle;rounded=0;orthogonalLoop=1;jettySize=auto;html=1;" edge="1" parent="1" source="PZAd172AtOwlA6TTgWJv-11" target="PZAd172AtOwlA6TTgWJv-13">
          <mxGeometry relative="1" as="geometry" />
        </mxCell>
        <mxCell id="PZAd172AtOwlA6TTgWJv-11" value="&quot;Insira o tamanho do primeiro lado do triangulo.:&quot;" style="shape=display;whiteSpace=wrap;html=1;" vertex="1" parent="1">
          <mxGeometry x="-504.75" y="440" width="304.75" height="55" as="geometry" />
        </mxCell>
        <mxCell id="PZAd172AtOwlA6TTgWJv-16" value="" style="edgeStyle=orthogonalEdgeStyle;rounded=0;orthogonalLoop=1;jettySize=auto;html=1;" edge="1" parent="1" source="PZAd172AtOwlA6TTgWJv-13" target="PZAd172AtOwlA6TTgWJv-10">
          <mxGeometry relative="1" as="geometry" />
        </mxCell>
        <mxCell id="PZAd172AtOwlA6TTgWJv-13" value="lado1" style="shape=manualInput;whiteSpace=wrap;html=1;" vertex="1" parent="1">
          <mxGeometry x="-392.38" y="515" width="80" height="80" as="geometry" />
        </mxCell>
        <mxCell id="PZAd172AtOwlA6TTgWJv-19" value="" style="edgeStyle=orthogonalEdgeStyle;rounded=0;orthogonalLoop=1;jettySize=auto;html=1;" edge="1" parent="1" source="PZAd172AtOwlA6TTgWJv-14" target="PZAd172AtOwlA6TTgWJv-18">
          <mxGeometry relative="1" as="geometry" />
        </mxCell>
        <mxCell id="PZAd172AtOwlA6TTgWJv-14" value="lado2" style="shape=manualInput;whiteSpace=wrap;html=1;" vertex="1" parent="1">
          <mxGeometry x="-392.38" y="715" width="80" height="80" as="geometry" />
        </mxCell>
        <mxCell id="PZAd172AtOwlA6TTgWJv-18" value="2" style="ellipse;whiteSpace=wrap;html=1;aspect=fixed;" vertex="1" parent="1">
          <mxGeometry x="-377.37" y="830" width="50" height="50" as="geometry" />
        </mxCell>
        <mxCell id="PZAd172AtOwlA6TTgWJv-20" value="3" style="ellipse;whiteSpace=wrap;html=1;aspect=fixed;" vertex="1" parent="1">
          <mxGeometry x="-730" y="1130" width="50" height="50" as="geometry" />
        </mxCell>
        <mxCell id="PZAd172AtOwlA6TTgWJv-52" value="" style="edgeStyle=orthogonalEdgeStyle;rounded=0;orthogonalLoop=1;jettySize=auto;html=1;" edge="1" parent="1" source="PZAd172AtOwlA6TTgWJv-53" target="PZAd172AtOwlA6TTgWJv-55">
          <mxGeometry relative="1" as="geometry" />
        </mxCell>
        <mxCell id="PZAd172AtOwlA6TTgWJv-53" value="2" style="ellipse;whiteSpace=wrap;html=1;aspect=fixed;" vertex="1" parent="1">
          <mxGeometry x="-27.75999999999999" y="360" width="50" height="50" as="geometry" />
        </mxCell>
        <mxCell id="PZAd172AtOwlA6TTgWJv-54" value="" style="edgeStyle=orthogonalEdgeStyle;rounded=0;orthogonalLoop=1;jettySize=auto;html=1;" edge="1" parent="1" source="PZAd172AtOwlA6TTgWJv-55" target="PZAd172AtOwlA6TTgWJv-56">
          <mxGeometry relative="1" as="geometry" />
        </mxCell>
        <mxCell id="PZAd172AtOwlA6TTgWJv-55" value="&quot;Insira o tamanho do terceiro lado do triangulo.:&quot;" style="shape=display;whiteSpace=wrap;html=1;" vertex="1" parent="1">
          <mxGeometry x="-155.13" y="440" width="304.75" height="55" as="geometry" />
        </mxCell>
        <mxCell id="PZAd172AtOwlA6TTgWJv-58" value="" style="edgeStyle=orthogonalEdgeStyle;rounded=0;orthogonalLoop=1;jettySize=auto;html=1;" edge="1" parent="1" source="PZAd172AtOwlA6TTgWJv-56" target="PZAd172AtOwlA6TTgWJv-57">
          <mxGeometry relative="1" as="geometry" />
        </mxCell>
        <mxCell id="PZAd172AtOwlA6TTgWJv-56" value="lado3" style="shape=manualInput;whiteSpace=wrap;html=1;" vertex="1" parent="1">
          <mxGeometry x="-42.75999999999999" y="515" width="80" height="80" as="geometry" />
        </mxCell>
        <mxCell id="PZAd172AtOwlA6TTgWJv-57" value="3" style="ellipse;whiteSpace=wrap;html=1;aspect=fixed;" vertex="1" parent="1">
          <mxGeometry x="-27.75999999999999" y="630" width="50" height="50" as="geometry" />
        </mxCell>
        <mxCell id="PZAd172AtOwlA6TTgWJv-90" style="edgeStyle=orthogonalEdgeStyle;rounded=0;orthogonalLoop=1;jettySize=auto;html=1;exitX=0.5;exitY=1;exitDx=0;exitDy=0;exitPerimeter=0;entryX=0;entryY=0.5;entryDx=0;entryDy=0;" edge="1" parent="1" source="PZAd172AtOwlA6TTgWJv-72" target="PZAd172AtOwlA6TTgWJv-87">
          <mxGeometry relative="1" as="geometry" />
        </mxCell>
        <mxCell id="PZAd172AtOwlA6TTgWJv-93" value="F" style="edgeLabel;html=1;align=center;verticalAlign=middle;resizable=0;points=[];" vertex="1" connectable="0" parent="PZAd172AtOwlA6TTgWJv-90">
          <mxGeometry x="-0.1125" y="1" relative="1" as="geometry">
            <mxPoint y="-11" as="offset" />
          </mxGeometry>
        </mxCell>
        <mxCell id="PZAd172AtOwlA6TTgWJv-72" value="lado1 &amp;lt; (lado2 + lado3)" style="strokeWidth=2;html=1;shape=mxgraph.flowchart.decision;whiteSpace=wrap;" vertex="1" parent="1">
          <mxGeometry x="-620" y="1090" width="160" height="130" as="geometry" />
        </mxCell>
        <mxCell id="PZAd172AtOwlA6TTgWJv-73" style="edgeStyle=orthogonalEdgeStyle;rounded=0;orthogonalLoop=1;jettySize=auto;html=1;exitX=1;exitY=0.5;exitDx=0;exitDy=0;entryX=0;entryY=0.5;entryDx=0;entryDy=0;entryPerimeter=0;" edge="1" parent="1" source="PZAd172AtOwlA6TTgWJv-20" target="PZAd172AtOwlA6TTgWJv-72">
          <mxGeometry relative="1" as="geometry" />
        </mxCell>
        <mxCell id="PZAd172AtOwlA6TTgWJv-84" style="edgeStyle=orthogonalEdgeStyle;rounded=0;orthogonalLoop=1;jettySize=auto;html=1;exitX=0.5;exitY=1;exitDx=0;exitDy=0;exitPerimeter=0;entryX=0;entryY=0.5;entryDx=0;entryDy=0;" edge="1" parent="1" source="PZAd172AtOwlA6TTgWJv-74" target="PZAd172AtOwlA6TTgWJv-81">
          <mxGeometry relative="1" as="geometry" />
        </mxCell>
        <mxCell id="PZAd172AtOwlA6TTgWJv-85" value="F" style="edgeLabel;html=1;align=center;verticalAlign=middle;resizable=0;points=[];" vertex="1" connectable="0" parent="PZAd172AtOwlA6TTgWJv-84">
          <mxGeometry x="-0.025" relative="1" as="geometry">
            <mxPoint y="-9" as="offset" />
          </mxGeometry>
        </mxCell>
        <mxCell id="PZAd172AtOwlA6TTgWJv-74" value="lado2 &amp;lt; (lado1 + lado3)" style="strokeWidth=2;html=1;shape=mxgraph.flowchart.decision;whiteSpace=wrap;" vertex="1" parent="1">
          <mxGeometry x="-460" y="990" width="160" height="130" as="geometry" />
        </mxCell>
        <mxCell id="PZAd172AtOwlA6TTgWJv-82" value="" style="edgeStyle=orthogonalEdgeStyle;rounded=0;orthogonalLoop=1;jettySize=auto;html=1;" edge="1" parent="1" source="PZAd172AtOwlA6TTgWJv-75" target="PZAd172AtOwlA6TTgWJv-81">
          <mxGeometry relative="1" as="geometry" />
        </mxCell>
        <mxCell id="PZAd172AtOwlA6TTgWJv-86" value="F" style="edgeLabel;html=1;align=center;verticalAlign=middle;resizable=0;points=[];" vertex="1" connectable="0" parent="PZAd172AtOwlA6TTgWJv-82">
          <mxGeometry x="0.0039" y="5" relative="1" as="geometry">
            <mxPoint as="offset" />
          </mxGeometry>
        </mxCell>
        <mxCell id="PZAd172AtOwlA6TTgWJv-75" value="lado3 &amp;lt; (lado1 + lado2)" style="strokeWidth=2;html=1;shape=mxgraph.flowchart.decision;whiteSpace=wrap;" vertex="1" parent="1">
          <mxGeometry x="-300" y="900" width="160" height="130" as="geometry" />
        </mxCell>
        <mxCell id="PZAd172AtOwlA6TTgWJv-77" style="edgeStyle=orthogonalEdgeStyle;rounded=0;orthogonalLoop=1;jettySize=auto;html=1;exitX=0.5;exitY=0;exitDx=0;exitDy=0;exitPerimeter=0;entryX=0;entryY=0.5;entryDx=0;entryDy=0;entryPerimeter=0;" edge="1" parent="1" source="PZAd172AtOwlA6TTgWJv-72" target="PZAd172AtOwlA6TTgWJv-74">
          <mxGeometry relative="1" as="geometry" />
        </mxCell>
        <mxCell id="PZAd172AtOwlA6TTgWJv-79" value="v" style="edgeLabel;html=1;align=center;verticalAlign=middle;resizable=0;points=[];" vertex="1" connectable="0" parent="PZAd172AtOwlA6TTgWJv-77">
          <mxGeometry x="0.2077" y="-4" relative="1" as="geometry">
            <mxPoint y="-15" as="offset" />
          </mxGeometry>
        </mxCell>
        <mxCell id="PZAd172AtOwlA6TTgWJv-78" style="edgeStyle=orthogonalEdgeStyle;rounded=0;orthogonalLoop=1;jettySize=auto;html=1;exitX=0.5;exitY=0;exitDx=0;exitDy=0;exitPerimeter=0;entryX=0;entryY=0.5;entryDx=0;entryDy=0;entryPerimeter=0;" edge="1" parent="1" source="PZAd172AtOwlA6TTgWJv-74" target="PZAd172AtOwlA6TTgWJv-75">
          <mxGeometry relative="1" as="geometry" />
        </mxCell>
        <mxCell id="PZAd172AtOwlA6TTgWJv-80" value="v" style="edgeLabel;html=1;align=center;verticalAlign=middle;resizable=0;points=[];" vertex="1" connectable="0" parent="PZAd172AtOwlA6TTgWJv-78">
          <mxGeometry x="0.1547" y="-3" relative="1" as="geometry">
            <mxPoint x="1" y="-14" as="offset" />
          </mxGeometry>
        </mxCell>
        <mxCell id="PZAd172AtOwlA6TTgWJv-88" style="edgeStyle=orthogonalEdgeStyle;rounded=0;orthogonalLoop=1;jettySize=auto;html=1;exitX=0.5;exitY=1;exitDx=0;exitDy=0;entryX=0.5;entryY=0;entryDx=0;entryDy=0;" edge="1" parent="1" source="PZAd172AtOwlA6TTgWJv-81" target="PZAd172AtOwlA6TTgWJv-87">
          <mxGeometry relative="1" as="geometry" />
        </mxCell>
        <mxCell id="PZAd172AtOwlA6TTgWJv-81" value="" style="ellipse;whiteSpace=wrap;html=1;aspect=fixed;" vertex="1" parent="1">
          <mxGeometry x="-240" y="1120" width="40" height="40" as="geometry" />
        </mxCell>
        <mxCell id="PZAd172AtOwlA6TTgWJv-92" style="edgeStyle=orthogonalEdgeStyle;rounded=0;orthogonalLoop=1;jettySize=auto;html=1;exitX=0.5;exitY=1;exitDx=0;exitDy=0;" edge="1" parent="1" source="PZAd172AtOwlA6TTgWJv-87" target="PZAd172AtOwlA6TTgWJv-91">
          <mxGeometry relative="1" as="geometry" />
        </mxCell>
        <mxCell id="PZAd172AtOwlA6TTgWJv-87" value="" style="ellipse;whiteSpace=wrap;html=1;aspect=fixed;" vertex="1" parent="1">
          <mxGeometry x="-400" y="1220" width="40" height="40" as="geometry" />
        </mxCell>
        <mxCell id="PZAd172AtOwlA6TTgWJv-121" style="edgeStyle=orthogonalEdgeStyle;rounded=0;orthogonalLoop=1;jettySize=auto;html=1;exitX=0;exitY=0;exitDx=176.71874999999997;exitDy=55;exitPerimeter=0;entryX=0;entryY=0.5;entryDx=0;entryDy=0;" edge="1" parent="1" source="PZAd172AtOwlA6TTgWJv-91" target="PZAd172AtOwlA6TTgWJv-119">
          <mxGeometry relative="1" as="geometry" />
        </mxCell>
        <mxCell id="PZAd172AtOwlA6TTgWJv-91" value="&quot;NÃ£o Ã© um triÃ¢ngulo&quot;" style="shape=display;whiteSpace=wrap;html=1;" vertex="1" parent="1">
          <mxGeometry x="-680" y="1350" width="304.75" height="55" as="geometry" />
        </mxCell>
        <mxCell id="PZAd172AtOwlA6TTgWJv-94" value="(lado1 == lado2) &amp;amp;&amp;amp; (lado2 == lado3) &amp;amp;&amp;amp; (lado3 == lado1)" style="strokeWidth=2;html=1;shape=mxgraph.flowchart.decision;whiteSpace=wrap;" vertex="1" parent="1">
          <mxGeometry x="37.24" y="820" width="192.76" height="160" as="geometry" />
        </mxCell>
        <mxCell id="PZAd172AtOwlA6TTgWJv-96" style="edgeStyle=orthogonalEdgeStyle;rounded=0;orthogonalLoop=1;jettySize=auto;html=1;exitX=0.5;exitY=0;exitDx=0;exitDy=0;exitPerimeter=0;entryX=0.5;entryY=0;entryDx=0;entryDy=0;entryPerimeter=0;" edge="1" parent="1" source="PZAd172AtOwlA6TTgWJv-75" target="PZAd172AtOwlA6TTgWJv-94">
          <mxGeometry relative="1" as="geometry" />
        </mxCell>
        <mxCell id="PZAd172AtOwlA6TTgWJv-117" style="edgeStyle=orthogonalEdgeStyle;rounded=0;orthogonalLoop=1;jettySize=auto;html=1;exitX=0;exitY=0;exitDx=141.25;exitDy=60;exitPerimeter=0;entryX=0.5;entryY=0;entryDx=0;entryDy=0;" edge="1" parent="1" source="PZAd172AtOwlA6TTgWJv-97" target="PZAd172AtOwlA6TTgWJv-113">
          <mxGeometry relative="1" as="geometry">
            <Array as="points">
              <mxPoint x="-15" y="1050" />
              <mxPoint x="-15" y="1280" />
            </Array>
          </mxGeometry>
        </mxCell>
        <mxCell id="PZAd172AtOwlA6TTgWJv-97" value="&quot;Pode-se um triÃ¢ngulo e ele Ã© equilÃ¡tero&quot;" style="shape=display;whiteSpace=wrap;html=1;" vertex="1" parent="1">
          <mxGeometry x="-140" y="990" width="250" height="60" as="geometry" />
        </mxCell>
        <mxCell id="PZAd172AtOwlA6TTgWJv-100" style="edgeStyle=orthogonalEdgeStyle;rounded=0;orthogonalLoop=1;jettySize=auto;html=1;exitX=0;exitY=0.5;exitDx=0;exitDy=0;exitPerimeter=0;entryX=0;entryY=0;entryDx=141.25;entryDy=0;entryPerimeter=0;" edge="1" parent="1" source="PZAd172AtOwlA6TTgWJv-94" target="PZAd172AtOwlA6TTgWJv-97">
          <mxGeometry relative="1" as="geometry" />
        </mxCell>
        <mxCell id="PZAd172AtOwlA6TTgWJv-101" value="V" style="edgeLabel;html=1;align=center;verticalAlign=middle;resizable=0;points=[];" vertex="1" connectable="0" parent="PZAd172AtOwlA6TTgWJv-100">
          <mxGeometry x="-0.0918" y="1" relative="1" as="geometry">
            <mxPoint x="-10" as="offset" />
          </mxGeometry>
        </mxCell>
        <mxCell id="PZAd172AtOwlA6TTgWJv-107" style="edgeStyle=orthogonalEdgeStyle;rounded=0;orthogonalLoop=1;jettySize=auto;html=1;exitX=0;exitY=0.5;exitDx=0;exitDy=0;exitPerimeter=0;" edge="1" parent="1" source="PZAd172AtOwlA6TTgWJv-103" target="PZAd172AtOwlA6TTgWJv-106">
          <mxGeometry relative="1" as="geometry" />
        </mxCell>
        <mxCell id="PZAd172AtOwlA6TTgWJv-110" value="V" style="edgeLabel;html=1;align=center;verticalAlign=middle;resizable=0;points=[];" vertex="1" connectable="0" parent="PZAd172AtOwlA6TTgWJv-107">
          <mxGeometry x="0.3626" y="1" relative="1" as="geometry">
            <mxPoint x="-10" as="offset" />
          </mxGeometry>
        </mxCell>
        <mxCell id="PZAd172AtOwlA6TTgWJv-103" value="(lado1 == lado2) || (lado2 == lado3) || (lado3 == lado1)" style="strokeWidth=2;html=1;shape=mxgraph.flowchart.decision;whiteSpace=wrap;" vertex="1" parent="1">
          <mxGeometry x="220" y="960" width="180" height="160" as="geometry" />
        </mxCell>
        <mxCell id="PZAd172AtOwlA6TTgWJv-104" style="edgeStyle=orthogonalEdgeStyle;rounded=0;orthogonalLoop=1;jettySize=auto;html=1;exitX=1;exitY=0.5;exitDx=0;exitDy=0;exitPerimeter=0;entryX=0.5;entryY=0;entryDx=0;entryDy=0;entryPerimeter=0;" edge="1" parent="1" source="PZAd172AtOwlA6TTgWJv-94" target="PZAd172AtOwlA6TTgWJv-103">
          <mxGeometry relative="1" as="geometry" />
        </mxCell>
        <mxCell id="PZAd172AtOwlA6TTgWJv-105" value="F" style="edgeLabel;html=1;align=center;verticalAlign=middle;resizable=0;points=[];" vertex="1" connectable="0" parent="PZAd172AtOwlA6TTgWJv-104">
          <mxGeometry x="-0.4461" y="1" relative="1" as="geometry">
            <mxPoint y="-9" as="offset" />
          </mxGeometry>
        </mxCell>
        <mxCell id="PZAd172AtOwlA6TTgWJv-115" style="edgeStyle=orthogonalEdgeStyle;rounded=0;orthogonalLoop=1;jettySize=auto;html=1;exitX=0;exitY=0;exitDx=141.25;exitDy=60;exitPerimeter=0;entryX=0;entryY=0.5;entryDx=0;entryDy=0;" edge="1" parent="1" source="PZAd172AtOwlA6TTgWJv-106" target="PZAd172AtOwlA6TTgWJv-112">
          <mxGeometry relative="1" as="geometry">
            <Array as="points">
              <mxPoint x="135" y="1200" />
              <mxPoint x="135" y="1280" />
            </Array>
          </mxGeometry>
        </mxCell>
        <mxCell id="PZAd172AtOwlA6TTgWJv-106" value="&quot;Pode-se um triÃ¢ngulo e ele Ã© isÃ³sceles&quot;" style="shape=display;whiteSpace=wrap;html=1;" vertex="1" parent="1">
          <mxGeometry x="10.000000000000009" y="1140" width="250" height="60" as="geometry" />
        </mxCell>
        <mxCell id="PZAd172AtOwlA6TTgWJv-116" style="edgeStyle=orthogonalEdgeStyle;rounded=0;orthogonalLoop=1;jettySize=auto;html=1;exitX=0;exitY=0;exitDx=141.25;exitDy=60;exitPerimeter=0;entryX=1;entryY=0.5;entryDx=0;entryDy=0;" edge="1" parent="1" source="PZAd172AtOwlA6TTgWJv-108" target="PZAd172AtOwlA6TTgWJv-112">
          <mxGeometry relative="1" as="geometry" />
        </mxCell>
        <mxCell id="PZAd172AtOwlA6TTgWJv-108" value="&quot;Pode-se um triÃ¢ngulo e ele Ã© escaleno&quot;" style="shape=display;whiteSpace=wrap;html=1;" vertex="1" parent="1">
          <mxGeometry x="380" y="1140" width="250" height="60" as="geometry" />
        </mxCell>
        <mxCell id="PZAd172AtOwlA6TTgWJv-109" style="edgeStyle=orthogonalEdgeStyle;rounded=0;orthogonalLoop=1;jettySize=auto;html=1;exitX=1;exitY=0.5;exitDx=0;exitDy=0;exitPerimeter=0;entryX=0;entryY=0;entryDx=141.25;entryDy=0;entryPerimeter=0;" edge="1" parent="1" source="PZAd172AtOwlA6TTgWJv-103" target="PZAd172AtOwlA6TTgWJv-108">
          <mxGeometry relative="1" as="geometry" />
        </mxCell>
        <mxCell id="PZAd172AtOwlA6TTgWJv-111" value="F" style="edgeLabel;html=1;align=center;verticalAlign=middle;resizable=0;points=[];" vertex="1" connectable="0" parent="PZAd172AtOwlA6TTgWJv-109">
          <mxGeometry x="0.5524" relative="1" as="geometry">
            <mxPoint x="-8" as="offset" />
          </mxGeometry>
        </mxCell>
        <mxCell id="PZAd172AtOwlA6TTgWJv-118" style="edgeStyle=orthogonalEdgeStyle;rounded=0;orthogonalLoop=1;jettySize=auto;html=1;exitX=0.5;exitY=1;exitDx=0;exitDy=0;entryX=1;entryY=0.5;entryDx=0;entryDy=0;" edge="1" parent="1" source="PZAd172AtOwlA6TTgWJv-112" target="PZAd172AtOwlA6TTgWJv-113">
          <mxGeometry relative="1" as="geometry" />
        </mxCell>
        <mxCell id="PZAd172AtOwlA6TTgWJv-112" value="" style="ellipse;whiteSpace=wrap;html=1;aspect=fixed;" vertex="1" parent="1">
          <mxGeometry x="310" y="1260" width="40" height="40" as="geometry" />
        </mxCell>
        <mxCell id="PZAd172AtOwlA6TTgWJv-122" style="edgeStyle=orthogonalEdgeStyle;rounded=0;orthogonalLoop=1;jettySize=auto;html=1;exitX=0.5;exitY=1;exitDx=0;exitDy=0;entryX=1;entryY=0.5;entryDx=0;entryDy=0;" edge="1" parent="1" source="PZAd172AtOwlA6TTgWJv-113" target="PZAd172AtOwlA6TTgWJv-119">
          <mxGeometry relative="1" as="geometry" />
        </mxCell>
        <mxCell id="PZAd172AtOwlA6TTgWJv-113" value="" style="ellipse;whiteSpace=wrap;html=1;aspect=fixed;" vertex="1" parent="1">
          <mxGeometry x="-35" y="1300" width="40" height="40" as="geometry" />
        </mxCell>
        <mxCell id="PZAd172AtOwlA6TTgWJv-124" value="" style="edgeStyle=orthogonalEdgeStyle;rounded=0;orthogonalLoop=1;jettySize=auto;html=1;" edge="1" parent="1" source="PZAd172AtOwlA6TTgWJv-119" target="PZAd172AtOwlA6TTgWJv-123">
          <mxGeometry relative="1" as="geometry" />
        </mxCell>
        <mxCell id="PZAd172AtOwlA6TTgWJv-119" value="" style="ellipse;whiteSpace=wrap;html=1;aspect=fixed;" vertex="1" parent="1">
          <mxGeometry x="-210" y="1420" width="40" height="40" as="geometry" />
        </mxCell>
        <mxCell id="PZAd172AtOwlA6TTgWJv-123" value="FIM" style="strokeWidth=2;html=1;shape=mxgraph.flowchart.terminator;whiteSpace=wrap;" vertex="1" parent="1">
          <mxGeometry x="-240" y="1530" width="100" height="60" as="geometry" />
        </mxCell>
      </root>
    </mxGraphModel>
  </diagram>
</mxfile>
